<svg preserveAspectRatio="none" width="100%" height="100%" overflow="visible" style="display: block;" viewBox="0 0 21 15" fill="none" xmlns="http://www.w3.org/2000/svg">
<path id="shape" d="M8.18075 12.8193C6.72692 11.3654 6 9.59233 6 7.5C6 5.40767 6.72692 3.63458 8.18075 2.18075C9.63458 0.726916 11.4077 0 13.5 0C15.5923 0 17.3654 0.726916 18.8193 2.18075C20.2731 3.63458 21 5.40767 21 7.5C21 9.59233 20.2731 11.3654 18.8193 12.8193C17.3654 14.2731 15.5923 15 13.5 15C11.4077 15 9.63458 14.2731 8.18075 12.8193ZM5.5 14.7308C3.8615 14.2961 2.53525 13.4086 1.52125 12.0683C0.507083 10.7279 0 9.20517 0 7.5C0 5.79483 0.507083 4.27208 1.52125 2.93175C2.53525 1.59142 3.8615 0.703917 5.5 0.26925V1.85C4.3 2.26667 3.33333 2.99167 2.6 4.025C1.86667 5.05833 1.5 6.21667 1.5 7.5C1.5 8.78333 1.86667 9.94167 2.6 10.975C3.33333 12.0083 4.3 12.7333 5.5 13.15V14.7308Z" fill="var(--fill-0, #FF8904)"/>
</svg>
