<svg preserveAspectRatio="none" width="100%" height="100%" overflow="visible" style="display: block;" viewBox="0 0 16 16" fill="none" xmlns="http://www.w3.org/2000/svg">
<path id="shape" d="M1.6155 16C1.15517 16 0.770833 15.8458 0.4625 15.5375C0.154167 15.2292 0 14.8448 0 14.3845V1.6155C0 1.15517 0.154167 0.770833 0.4625 0.4625C0.770833 0.154167 1.15517 0 1.6155 0H14.3845C14.8448 0 15.2292 0.154167 15.5375 0.4625C15.8458 0.770833 16 1.15517 16 1.6155V14.3845C16 14.8448 15.8458 15.2292 15.5375 15.5375C15.2292 15.8458 14.8448 16 14.3845 16H1.6155ZM1 4.998H15V1.6155C15 1.4615 14.9359 1.32042 14.8077 1.19225C14.6796 1.06408 14.5385 1 14.3845 1H1.6155C1.4615 1 1.32042 1.06408 1.19225 1.19225C1.06408 1.32042 1 1.4615 1 1.6155V4.998ZM1 10.002H15V5.998H1V10.002ZM1.6155 15H14.3845C14.5385 15 14.6796 14.9359 14.8077 14.8077C14.9359 14.6796 15 14.5385 15 14.3845V11.002H1V14.3845C1 14.5385 1.06408 14.6796 1.19225 14.8077C1.32042 14.9359 1.4615 15 1.6155 15ZM2.76925 3.80375V2.1885H4.3845V3.80375H2.76925ZM2.76925 8.80775V7.19225H4.3845V8.80775H2.76925ZM2.76925 13.8115V12.1962H4.3845V13.8115H2.76925Z" fill="var(--fill-0, #1C1B1F)"/>
</svg>
